. 
 
http://www.torrenting.com          :     Once & For all ;)


               www . Torrenting . Com 

(((((((((((((= Enjoy No RAR releases =))))))))))))))))))))


...................................NFO:....................................

.








































          
          
              
              
                    
                    
                    
                    

Donner.Pass.2012.DVDRiP.XviD.AC3-SiC

Poster:
[IMG]http://img191.imageshack.us/img191/7760/donnerpass.jpg[/IMG]

IMDB Link:
http://www.imdb.com/title/tt1626139/

Description:
Donner Pass has a well-known and macabre history - the place where George Donner and his party got stuck in the winter of 1846 and were forced to resort to cannibalism to keep from starving. But what if it wasn't just history? 

MediaInfo:
General
Complete name                    : Donner.Pass.2012.DVDRiP.XviD.AC3-SiC.avi
Format                           : AVI
Format/Info                      : Audio Video Interleave
File size                        : 1.37 GiB
Duration                         : 1h 25mn
Overall bit rate                 : 2 274 Kbps

Video
ID                               : 0
Format                           : MPEG-4 Visual
Format profile                   : Advanced Simple@L5
Format settings, BVOP            : 2
Format settings, QPel            : No
Format settings, GMC             : No warppoints
Format settings, Matrix          : Default (H.263)
Muxing mode                      : Packed bitstream
Codec ID                         : XVID
Codec ID/Hint                    : XviD
Duration                         : 1h 25mn
Bit rate                         : 1 818 Kbps
Width                            : 720 pixels
Height                           : 400 pixels
Display aspect ratio             : 16:9
Frame rate                       : 23.976 fps
Color space                      : YUV
Chroma subsampling               : 4:2:0
Bit depth                        : 8 bits
Scan type                        : Progressive
Compression mode                 : Lossy
Bits/(Pixel*Frame)               : 0.263
Stream size                      : 1.09 GiB (80%)
Writing library                  : XviD 1.1.2 (UTC 2006-11-01)

Audio
ID                               : 1
Format                           : AC-3
Format/Info                      : Audio Coding 3
Mode extension                   : CM (complete main)
Codec ID                         : 2000
Duration                         : 1h 25mn
Bit rate mode                    : Constant
Bit rate                         : 448 Kbps
Channel(s)                       : 6 channels
Channel positions                : Front: L C R, Side: L R, LFE
Sampling rate                    : 48.0 KHz
Bit depth                        : 16 bits
Compression mode                 : Lossy
Stream size                      : 276 MiB (20%)
Alignment                        : Aligned on interleaves
Interleave, duration             : 64 ms (1.53 video frames)
Interleave, preload duration     : 192 ms
Title                            : VTS_02_1 3_2ch 448Kbps DELAY -16ms

Screenshots:
[IMG]http://img11.imageshack.us/img11/3277/scrncp00004a.png[/IMG]
[IMG]http://img6.imageshack.us/img6/4189/scrncp00009.png[/IMG]
[IMG]http://img804.imageshack.us/img804/5965/scrncp00013.png[/IMG]
[IMG]http://img233.imageshack.us/img233/6402/scrncp00015.png[/IMG]
[IMG]http://img534.imageshack.us/img534/6585/scrncp00020.png[/IMG]

Note : Encoded from the Retail NTSC DVD. Unfortunately the Retail DVD was pretty mediocre quality and only a DVD5 to boot. Did the usual stuff, turned out nice.

P.S. Please Note ours is NOT a reencode of the other xvid, it is encoded from the retail DVD (not the DVDR, though that is most likely untouched as the retail disc was only 3.99 GB) and also has DD 5.1 audio where the other had 2.0 mp3!

Source: Retail NTSC DVD / Our Own

Enjoy!

Respects to T00NG0D, ELEKTRI4KA, PA, YeFsTe, Box, MrRep and everyone in the struggle...